<svg width="152" height="41" viewBox="0 0 152 41" fill="none" xmlns="http://www.w3.org/2000/svg">
<path d="M14.1828 26.2077H10.5836C10.9609 25.2371 11.2793 24.3512 11.6586 23.4923C11.7444 23.2969 11.8664 23.0395 11.8664 23.0395C11.8664 23.0395 12.6902 23.0096 12.9135 23.0096C14.9601 23.0065 19.0545 23.0147 19.0545 23.0147H19.7605C19.7605 23.0147 20.6494 20.2207 21.0866 19.063C21.1404 18.9214 21.2107 18.7374 21.2861 18.5193C21.0649 18.5193 20.8489 18.5162 20.6721 18.5152C17.4037 18.5131 8.33646 18.5038 8.33646 18.5038L7.54571 20.6197C7.54571 20.6197 7.00821 21.886 6.77563 22.533C6.6578 22.8597 6.56994 22.9785 6.56994 22.9785C6.56994 22.9785 3.0741 22.9899 1.54429 22.9548C1.22178 22.9475 0.418632 22.9434 0 22.9434C0.279088 22.5672 0.467214 22.2943 0.979908 21.6761C3.4855 18.8656 6.01589 16.0768 8.54112 13.2828C12.069 9.37973 15.5969 5.47664 19.1248 1.57354C19.1826 1.50946 19.2354 1.44123 19.2963 1.38128C19.5641 1.1146 19.8297 0.772458 20.2607 0.960584C20.7249 1.16215 20.7486 1.62006 20.6628 2.02939C20.5574 2.52968 20.3838 3.01963 20.1998 3.49925C18.7216 7.35066 17.2342 11.199 15.7509 15.0483C15.692 15.2023 15.6537 15.3646 15.5855 15.5931C15.847 15.6096 16.0445 15.6334 16.2419 15.6344C18.857 15.6365 21.4712 15.6323 24.0863 15.6406C24.4615 15.6416 24.8471 15.6654 25.2109 15.7502C26.3707 16.022 26.9785 17.0092 26.5971 18.139C26.4058 18.7054 26.0658 19.2698 25.6575 19.7081C19.2478 26.5912 12.8163 33.4536 6.38594 40.3171C6.20092 40.5146 5.99005 40.7089 5.75438 40.835C5.40397 41.0231 5.12488 40.8236 5.16829 40.4277C5.19414 40.1931 5.28096 39.9605 5.36676 39.7373C6.50895 36.7696 7.66045 33.8051 8.7954 30.8344C8.91634 30.5181 8.96492 30.3878 8.96492 30.3878L12.6509 30.4137C12.6509 30.4137 12.6913 30.3051 12.8039 29.9909C13.205 28.8756 13.6412 27.7727 14.0609 26.6646C14.1022 26.556 14.1218 26.4392 14.1818 26.2077H14.1828Z" fill="url(#paint0_linear_4613_6539)"/>
<path d="M44.9431 20.2426H37.7838V26.673H35.3887V11.0527H45.8022V13.3176H37.7838V17.9777H44.9431V20.2426Z" fill="white"/>
<path d="M49.3611 26.673H47.0962V14.5152H49.3611V18.2641H49.4132C49.9079 15.4264 51.0534 14.5152 53.0059 14.5152H53.7609V17.0144H52.6675C50.3765 17.0144 49.3611 17.8996 49.3611 20.2426V26.673Z" fill="white"/>
<path d="M59.4645 16.1553C57.3818 16.1553 56.002 17.2748 55.6896 19.5397H62.9791C62.8229 17.3789 61.7035 16.1553 59.4645 16.1553ZM59.5687 26.9594C55.8198 26.9594 53.3726 24.6684 53.3726 20.6852C53.3726 16.6239 55.8458 14.2028 59.5426 14.2028C63.1614 14.2028 65.1139 16.5198 65.1139 19.8521C65.1139 20.2426 65.1139 20.7373 65.0618 21.31H55.6376C55.8719 23.6791 57.2517 24.9808 59.5687 24.9808C61.7555 24.9808 62.6146 23.8614 63.0312 22.4295L65.0358 23.0283C64.411 25.4234 62.6667 26.9594 59.5687 26.9594Z" fill="white"/>
<path d="M71.1672 24.9548C73.4582 24.9548 74.9161 23.2886 74.9161 20.7113V20.529C74.9161 17.7955 73.4582 16.2595 71.1672 16.2595C68.72 16.2595 67.5745 17.8475 67.5745 20.6071C67.5745 23.3407 68.7721 24.9548 71.1672 24.9548ZM65.3096 20.6331C65.3096 16.65 67.0538 14.2028 70.3862 14.2028C72.9635 14.2028 74.3954 15.7127 74.864 18.212L74.9161 18.1599V14.5152H77.181V30.7603H74.9161V23.1324H74.838C74.3173 25.5275 72.9115 26.9854 70.256 26.9854C67.1319 26.9854 65.3096 24.5643 65.3096 20.6331Z" fill="white"/>
<path d="M87.1713 26.673V23.3927H87.1453C86.6246 25.866 85.0365 26.9854 82.9018 26.9854C79.7517 26.9854 78.6582 24.9027 78.6582 22.2993V14.5152H80.9232V21.7266C80.9232 23.3927 81.6521 24.9027 83.839 24.9027C85.9217 24.9027 87.1713 23.7572 87.1713 21.7266V14.5152H89.4363V26.673H87.1713Z" fill="white"/>
<path d="M96.4449 16.1553C94.3622 16.1553 92.9824 17.2748 92.67 19.5397H99.9595C99.8033 17.3789 98.6838 16.1553 96.4449 16.1553ZM96.549 26.9594C92.8001 26.9594 90.3529 24.6684 90.3529 20.6852C90.3529 16.6239 92.8262 14.2028 96.523 14.2028C100.142 14.2028 102.094 16.5198 102.094 19.8521C102.094 20.2426 102.094 20.7373 102.042 21.31H92.6179C92.8522 23.6791 94.232 24.9808 96.549 24.9808C98.7359 24.9808 99.595 23.8614 100.012 22.4295L102.016 23.0283C101.391 25.4234 99.647 26.9594 96.549 26.9594Z" fill="white"/>
<path d="M105.258 19.4616V26.673H102.993V14.5152H105.258V17.7955H105.284C105.804 15.3222 107.393 14.2028 109.527 14.2028C112.677 14.2028 113.771 16.2855 113.771 18.8889V26.673H111.506V19.4616C111.506 17.7955 110.803 16.2595 108.59 16.2595C106.507 16.2595 105.258 17.431 105.258 19.4616Z" fill="white"/>
<path d="M124.398 19.4096C123.956 17.483 122.888 16.2855 120.753 16.2855C118.462 16.2855 116.874 17.7174 116.874 20.6071C116.874 23.3146 118.41 24.9027 120.832 24.9027C123.201 24.9027 123.982 23.4708 124.45 21.6224L126.611 22.065C126.064 25.137 124.294 26.9854 120.858 26.9854C117.057 26.9854 114.557 24.6684 114.557 20.5811C114.557 16.5719 117.161 14.2028 120.779 14.2028C124.32 14.2028 126.038 15.9731 126.585 19.019L124.398 19.4096Z" fill="white"/>
<path d="M132.942 16.1553C130.859 16.1553 129.48 17.2748 129.167 19.5397H136.457C136.301 17.3789 135.181 16.1553 132.942 16.1553ZM133.046 26.9594C129.297 26.9594 126.85 24.6684 126.85 20.6852C126.85 16.6239 129.323 14.2028 133.02 14.2028C136.639 14.2028 138.592 16.5198 138.592 19.8521C138.592 20.2426 138.592 20.7373 138.539 21.31H129.115C129.349 23.6791 130.729 24.9808 133.046 24.9808C135.233 24.9808 136.092 23.8614 136.509 22.4295L138.513 23.0283C137.889 25.4234 136.144 26.9594 133.046 26.9594Z" fill="white"/>
<path d="M144.879 16.1553C142.796 16.1553 141.417 17.2748 141.104 19.5397H148.394C148.237 17.3789 147.118 16.1553 144.879 16.1553ZM144.983 26.9594C141.234 26.9594 138.787 24.6684 138.787 20.6852C138.787 16.6239 141.26 14.2028 144.957 14.2028C148.576 14.2028 150.528 16.5198 150.528 19.8521C150.528 20.2426 150.528 20.7373 150.476 21.31H141.052C141.286 23.6791 142.666 24.9808 144.983 24.9808C147.17 24.9808 148.029 23.8614 148.446 22.4295L150.45 23.0283C149.826 25.4234 148.081 26.9594 144.983 26.9594Z" fill="white"/>
<defs>
<linearGradient id="paint0_linear_4613_6539" x1="13.3554" y1="0.906494" x2="13.3554" y2="40.9065" gradientUnits="userSpaceOnUse">
<stop stop-color="#1D7437"/>
<stop offset="0.33" stop-color="#33F06A"/>
<stop offset="0.615" stop-color="#B8E6A2"/>
<stop offset="1" stop-color="#ECEFC5"/>
</linearGradient>
</defs>
</svg>
